<?xml version="1.0" encoding="UTF-8"?><svg id="Layer_1" xmlns="http://www.w3.org/2000/svg" viewBox="0 0 475.64 136.83"><defs><style>.cls-1{fill:#fff;}</style></defs><g><path class="cls-1" d="M31.14,76.07c0,16-6.14,24.51-19.7,24.51-4.02,0-7.63-.81-9.74-2.07v-14.73c1.8,1.04,4.24,1.61,6.57,1.61,4.66,0,7.1-2.99,7.1-8.75V16.11h15.78v59.96Z"/><path class="cls-1" d="M63.33,53.97v45h-15.04V14.85h2.65l28.6,41.08L107.92,14.85h2.75V98.97h-15.04V63.07c0-2.88,0-6.1,.11-9.09-3.71,6.33-11.01,16.11-16.2,23.94-5.19-7.71-12.71-17.72-16.2-23.94Z"/><path class="cls-1" d="M143.61,70.43v28.54h-15.67V16.11h22.24c16.2,0,25.21,9.67,25.21,27.16s-9,27.16-25.21,27.16h-6.57Zm0-39.7v25.09h7.52c5.3,0,8.37-4.6,8.37-12.54s-3.18-12.54-8.79-12.54h-7.1Z"/><path class="cls-1" d="M203.77,70.43v28.54h-15.67V16.11h22.24c16.21,0,25.21,9.67,25.21,27.16s-9,27.16-25.21,27.16h-6.57Zm0-39.7v25.09h7.52c5.3,0,8.37-4.6,8.37-12.54s-3.18-12.54-8.79-12.54h-7.1Z"/><path class="cls-1" d="M263.4,14.85h2.96l30.29,84.12h-16.42l-4.77-14.85h-21.29l-4.55,14.85h-16.42l30.18-84.12Zm8.9,57.43c-2.97-8.98-5.3-16.11-7.31-24.05-2.22,7.94-4.45,15.08-7.52,24.05h14.83Z"/><path class="cls-1" d="M307.14,98.97V16.11h21.71c22.77,0,35.48,15.42,35.48,41.43s-12.6,41.43-35.37,41.43h-21.82Zm15.67-68.24v53.63h5.93c12.6,0,19.7-10.13,19.7-26.81s-7.1-26.81-19.8-26.81h-5.83Z"/></g><path class="cls-1" d="M406.36,32.79h15.68c14.04-23.15,35.59-23.99,48.67-21.57,2.04,.39,3.64,1.97,4.01,4.01,2.43,13.08,1.58,34.63-21.57,48.67v15.7c0,4.46-2.36,8.61-6.2,10.88l-15.56,9.23c-1.3,.77-2.92,.79-4.24,.04s-2.13-2.14-2.13-3.67v-20.16c0-3.97-1.58-7.79-4.39-10.6s-6.63-4.39-10.6-4.39h-20.16c-1.51,0-2.92-.81-3.67-2.13s-.74-2.94,.04-4.24l9.23-15.56c2.29-3.85,6.42-6.2,10.88-6.2h.02Zm53.82,0c0-3.88-3.15-7.03-7.03-7.03s-7.03,3.15-7.03,7.03,3.15,7.03,7.03,7.03,7.03-3.15,7.03-7.03Zm-45.26,60.11c-8.7,8.7-29.18,7.29-29.18,7.29,0,0-1.41-20.48,7.29-29.18,6.05-6.05,15.84-6.05,21.88,0,6.05,6.05,6.05,15.84,0,21.88Zm-8.21-6.4c2-2,2-5.27,0-7.28s-5.27-2-7.28,0c-2.9,2.9-2.43,9.7-2.43,9.7,0,0,6.8,.47,9.7-2.43h0Z"/></svg>